<?xml version="1.0" encoding="UTF-8"?>
<svg version="1.1" xmlns="http://www.w3.org/2000/svg" width="199" height="200">
<path d="M0 0 C65.67 0 131.34 0 199 0 C199 66 199 132 199 200 C133.33 200 67.66 200 0 200 C0 134 0 68 0 0 Z " fill="#E0E3E4" transform="translate(0,0)"/>
<path d="M0 0 C38.61 0 77.22 0 117 0 C117 38.61 117 77.22 117 117 C78.39 117 39.78 117 0 117 C0 78.39 0 39.78 0 0 Z " fill="#E8212B" transform="translate(41,42)"/>
<path d="M0 0 C38.61 0 77.22 0 117 0 C117 38.61 117 77.22 117 117 C78.39 117 39.78 117 0 117 C0 78.39 0 39.78 0 0 Z M11 11 C11 42.35 11 73.7 11 106 C42.35 106 73.7 106 106 106 C106 74.65 106 43.3 106 11 C74.65 11 43.3 11 11 11 Z " fill="#158F4B" transform="translate(41,42)"/>
<path d="M0 0 C31.35 0 62.7 0 95 0 C95 31.35 95 62.7 95 95 C63.65 95 32.3 95 0 95 C0 63.65 0 32.3 0 0 Z M11 11 C11 35.09 11 59.18 11 84 C35.09 84 59.18 84 84 84 C84 59.91 84 35.82 84 11 C59.91 11 35.82 11 11 11 Z " fill="#E7E0E2" transform="translate(52,53)"/>
<path d="M0 0 C31.35 0 62.7 0 95 0 C95 31.35 95 62.7 95 95 C63.65 95 32.3 95 0 95 C0 63.65 0 32.3 0 0 Z M2 3 C1.9048051 5.79993307 1.87447363 8.57502816 1.88647461 11.37524414 C1.88635407 12.26746139 1.88623354 13.15967863 1.88610935 14.07893276 C1.88685865 16.98103219 1.89448763 19.88306823 1.90234375 22.78515625 C1.90381312 24.57124806 1.90483386 26.35734029 1.90539551 28.14343262 C1.91064899 34.78312829 1.92461007 41.42281476 1.9375 48.0625 C1.958125 62.891875 1.97875 77.72125 2 93 C31.7 93 61.4 93 92 93 C93.57672311 89.84655378 93.39240198 86.42575587 93.57006836 82.95556641 C93.61260962 82.1496789 93.65515089 81.34379139 93.69898129 80.51348305 C94.09675861 72.23749895 94.03300524 63.99195227 93.87890625 55.7109375 C93.85450061 54.14483482 93.83066307 52.5787232 93.80735779 51.01260376 C93.74555212 46.95867443 93.67621257 42.90491061 93.60510254 38.85113525 C93.53346251 34.6872896 93.4692252 30.52332976 93.40429688 26.359375 C93.27662633 18.23945663 93.14096732 10.11969839 93 2 C81.28273212 1.97687785 69.56546963 1.95908557 57.84818363 1.94818783 C52.40797688 1.94295872 46.96778569 1.93586057 41.52758789 1.92456055 C36.28214298 1.91373265 31.03671308 1.90772338 25.79125786 1.90512276 C23.78529054 1.90326833 21.77932408 1.89964738 19.77336311 1.89426994 C16.97397176 1.88706081 14.17464321 1.886009 11.37524414 1.88647461 C10.53727295 1.88287933 9.69930176 1.87928406 8.8359375 1.87557983 C5.1149657 1.52321295 5.1149657 1.52321295 2 3 Z " fill="#C8EBD9" transform="translate(52,53)"/>
</svg>
